<svg width="17" height="17" viewBox="0 0 17 17" fill="none" xmlns="http://www.w3.org/2000/svg">
<g id="ArrowLeft">
<g id="Vector">
<path fill-rule="evenodd" clip-rule="evenodd" d="M2.48413 8.5C2.48413 8.22386 2.70799 8 2.98413 8H13.9841C14.2603 8 14.4841 8.22386 14.4841 8.5C14.4841 8.77614 14.2603 9 13.9841 9H2.98413C2.70799 9 2.48413 8.77614 2.48413 8.5Z" fill="#FF859B"/>
<path fill-rule="evenodd" clip-rule="evenodd" d="M7.83768 3.64645C8.03295 3.84171 8.03295 4.15829 7.83768 4.35355L3.69124 8.5L7.83768 12.6464C8.03295 12.8417 8.03295 13.1583 7.83768 13.3536C7.64242 13.5488 7.32584 13.5488 7.13058 13.3536L2.63058 8.85355C2.43532 8.65829 2.43532 8.34171 2.63058 8.14645L7.13058 3.64645C7.32584 3.45118 7.64242 3.45118 7.83768 3.64645Z" fill="#FF859B"/>
</g>
</g>
</svg>
